<?xml version="1.0" encoding="UTF-8"?>
<svg width="99px" height="23px" viewBox="0 0 99 23" version="1.1" xmlns="http://www.w3.org/2000/svg" xmlns:xlink="http://www.w3.org/1999/xlink">
    <!-- Generator: Sketch 61.2 (89653) - https://sketch.com -->
    <title>client-2</title>
    <desc>Created with Sketch.</desc>
    <g id="Personal-1-mixed" stroke="none" stroke-width="1" fill="none" fill-rule="evenodd" opacity="0.300000012">
        <g transform="translate(-671.000000, -4946.000000)" fill="#454360" fill-rule="nonzero" id="clients">
            <g transform="translate(350.000000, 4446.000000)">
                <g id="Group-5" transform="translate(59.000000, 487.000000)">
                    <g id="client-2" transform="translate(262.000000, 13.000000)">
                        <polygon id="Path" points="42.2344528 9.00086813 42.2345972 9 41.7654028 11"></polygon>
                        <path d="M45.2345972,14.0021365 L44.7654028,13.9978635 L45.2345972,14.0021365 Z" id="Path"></path>
                        <polygon id="Path" points="44.9994407 16.9924251 45 16.9924251 41 17.0075749"></polygon>
                        <path d="M46.2345972,14.0020394 L45.7654028,13.9979606 L46.2345972,14.0020394 Z" id="Path"></path>
                        <polygon id="Path" points="45 16.9993688 46 14 45 17"></polygon>
                        <path d="M61,4 L60,11 L61,4 Z" id="Path"></path>
                        <polygon id="Path" points="58 4.00040891 57 9 58 4"></polygon>
                        <path d="M60.7669028,4 L57.9278007,4 C57.7703059,4 57.613955,4.12599219 57.5805875,4.27934921 L56.572506,8.92661784 L55.5646152,13.5740765 C55.5314384,13.7274335 55.3752782,13.8532357 55.2175927,13.8532357 L53.4952549,13.8532357 L53.208294,13.8532357 C51.2203505,13.8532357 51.4501099,12.4825242 51.8575754,10.6049935 C51.8615795,10.5861802 51.8655836,10.5677469 51.869397,10.5483635 L51.9140142,10.3115818 C51.917065,10.2963791 51.919925,10.2811765 51.9224038,10.267304 L52.0133542,9.78537912 L52.1105968,9.26905816 C52.1401509,9.11342075 52.1849588,8.88576065 52.2145129,8.74266544 L52.6723157,6.51148241 L53.1310719,4.28029938 C53.1627234,4.12637226 53.0593793,4 52.9015031,4 L49.9876577,4 C49.8305442,4 49.6741934,4.12637226 49.6421605,4.27991931 L49.0154225,7.24254119 L48.3888752,10.204593 C48.3883032,10.2061132 48.3879219,10.2080136 48.3879219,10.2091538 L48.329767,10.4845123 C47.6078838,13.7681007 47.7993182,16.8996623 51.7216264,16.9975296 C51.7858828,16.9994299 51.8354575,17 51.8354575,17 L57.9920571,17 C58.1497426,17 58.3055214,16.8738178 58.338317,16.7202707 L59.6663456,10.5002851 L60.9938022,4.27972928 C61.0267884,4.12599219 60.924779,4 60.7669028,4 L60.7669028,4 Z" id="Path"></path>
                        <path d="M71.8432359,14 C72.1056445,14 72.2778302,14.1550714 72.2250944,14.3448114 L71.7654028,16" id="Path"></path>
                        <path d="M71.7660518,16.9997172 L72.2345972,16 L71.7654028,17 C71.7654028,16.9997172 71.7660518,16.9997172 71.7660518,16.9997172 L71.7660518,16.9997172 Z" id="Path"></path>
                        <path d="M71.9985426,16.9871809 C71.9990892,16.9871809 71.9996357,16.9867924 72,16.9867924 C71.2015521,16.9935904 68.8027471,17.0132076 67,17.0132076 C69.1940467,17.0132076 71.9985426,16.9875693 71.9985426,16.9875693 L71.9985426,16.9871809 Z" id="Path"></path>
                        <path d="M64.8719129,12.486676 C64.8693452,12.3104892 65.0578554,12.0068289 65.2345972,12.0068289 L64.8368213,12 C64.6577259,13.9182499 64.8719129,12.486676 64.8719129,12.486676 L64.8719129,12.486676 Z" id="Path"></path>
                        <path d="M67.0279106,16.9998058 C67.0094332,16.9998058 66.9905668,16.9998058 66.9720894,17.0001942 C66.9903723,16.9998058 67.0094332,16.9998058 67.0279106,16.9998058 Z" id="Path"></path>
                        <path d="M71.8969594,14 C72.1233462,14 72.2718955,14.1366357 72.2263988,14.3038184 L71.8298107,15.7622291 L71.7654028,16" id="Path"></path>
                        <path d="M68.0059322,17 L67.9940678,17 L68.0059322,17 Z" id="Path"></path>
                        <path d="M68.0206169,17 L67.9793831,17 L68.0206169,17 Z" id="Path"></path>
                        <path d="M67.0341346,16.9998058 C67.0111837,16.9998058 66.9888163,16.9998058 66.9658654,17.0001942 C66.9888163,16.9998058 67.0111837,16.9998058 67.0341346,16.9998058 Z" id="Path"></path>
                        <path d="M67.0300501,17 L66.9699499,17 L67.0300501,17 Z" id="Path"></path>
                        <path d="M67.0876218,16.9998058 C67.0288831,16.9998058 66.9701444,17.0001942 66.9123782,17.0001942 C66.9703389,17.0001942 67.0290776,16.9998058 67.0876218,16.9998058 Z" id="Path"></path>
                        <path d="M68.2345972,16.9989317 C68.077372,16.9997087 67.920408,17.0006798 67.7654028,17.0010683 C67.920408,17.0006798 68.0775026,16.9997087 68.2345972,16.9989317 Z" id="Path"></path>
                        <path d="M72,16.9888318 L72,16.9888318 C71.3255643,16.9936875 69.6604724,17.0053413 68,17.0111682 C69.6596325,17.0057298 71.3251444,16.9938818 72,16.9888318 Z" id="Path"></path>
                        <path d="M71.7661771,16.9994937 L72.2345972,16 L71.7654028,17 C71.7654028,16.9996624 71.7661771,16.9996624 71.7661771,16.9991561 L71.7661771,16.9994937 Z" id="Path"></path>
                        <path d="M67.0763409,17 L66.9236591,17 L67.0763409,17 Z" id="Path"></path>
                        <path d="M67.103279,17 L66.896721,17 L67.103279,17 Z" id="Path"></path>
                        <path d="M67.0814951,17 L66.9185049,17 L67.0814951,17 Z" id="Path"></path>
                        <path d="M24.5537541,12.1669203 L25,10 L24.4896738,12.4769634 L24,15 L24.4292608,12.7882746 C24.462459,12.6170851 24.5186257,12.3374757 24.5537541,12.1669203 L24.5537541,12.1669203 Z" id="Path"></path>
                        <path d="M29.7841149,4 L26.8825875,4 C26.7358432,4 26.5894537,4.11932126 26.556627,4.26445635 L26.2815923,5.49972923 L26.0063801,6.73554365 C25.9740857,6.88085926 26.0675975,7 26.2143419,7 L29.138227,7 C29.2847939,7 29.430651,6.88067874 29.4620582,6.73500211 L29.7280433,5.49954871 L29.9940285,4.26517841 L29.9940285,4.26481738 C30.0252583,4.11932126 29.9308593,4 29.7841149,4 L29.7841149,4 Z" id="Path"></path>
                        <polygon id="Path" points="29 8.00036057 29 8 28 12"></polygon>
                        <path d="M20.0015568,22.9899001 C20.0015568,22.9899001 21.8348284,23.0102942 23,23.0102942 C22.1150567,23.0102942 20.6527541,22.9963096 20,22.9897058 C20.0006672,22.9897058 20.001112,22.9899001 20.0015568,22.9899001 L20.0015568,22.9899001 Z" id="Path"></path>
                        <path d="M25.2345972,8 L24.7654028,10 L25.2345972,8 Z" id="Path"></path>
                        <path d="M28.7753134,8 L25.731636,8 C25.5790827,8 25.4265295,8.13204331 25.3929161,8.29325201 L24.9653606,10.3414215 L24.5383593,12.389591 C24.5047459,12.5506 24.4508166,12.8148863 24.4190501,12.9764946 L24.0083014,15.0672136 L23.5977374,17.1577328 C23.5657862,17.3187418 23.5002215,17.5794324 23.4514636,17.7360466 C23.4514636,17.7360466 22.8828056,19.5660749 21.9268545,19.5452996 C21.8862229,19.5443008 21.8466994,19.5439012 21.8075453,19.5429024 C21.3445296,19.533114 20.9803226,19.5261223 20.9803226,19.5261223 L20.9795838,19.5261223 C20.8273999,19.5237252 20.6739232,19.6525723 20.6384629,19.8127822 L20.3226445,21.2484785 L20.00738,22.6829762 C19.9719197,22.8433858 20.0677734,22.9758287 20.2192185,22.9784256 C20.7614659,22.9852175 21.9756125,23 22.7104906,23 C25.0983368,23 26.3571782,21.569098 27.1639005,17.4517839 L28.1082161,12.7259918 L28.9938007,8.29365153 C29.026306,8.13204331 28.927682,8.00019976 28.7753134,8 L28.7753134,8 Z" id="Path"></path>
                        <path d="M74.196634,17 C74.0635698,17 73.9771665,16.86638 74.005324,16.7031339 L76,5" id="Path"></path>
                        <path d="M78,17 L79,12 L78,17 Z" id="Path"></path>
                        <path d="M74.0341474,16.8550497 C74.0181007,16.7755925 74.0274078,16.5804897 74.05565,16.421182 L75,11 L74.0052633,16.7104927 C73.977342,16.8696037 74.0633524,17 74.1958984,17 L74.4375622,17 C74.3046952,16.9998033 74.0505151,16.9347035 74.0341474,16.8550497 L74.0341474,16.8550497 Z" id="Path"></path>
                        <path d="M78.067706,17.1819912 C78.0090405,17.2109697 77.8731081,17.2346939 77.7654028,17.2346939 L77.9613016,17.2346939 C78.0687467,17.2346939 78.1743707,17.1291294 78.1954434,16.9998408 L78.2345972,16.7653061 C78.2130041,16.8942763 78.1262415,17.1528535 78.067706,17.1819912 L78.067706,17.1819912 Z" id="Path"></path>
                        <path d="M78.7654028,14 L79.2345972,12 C79.2341733,12.0012799 79.2341733,12.0029256 79.2337495,12.0038398 L78.7654028,14 L78.7654028,14 Z" id="Path"></path>
                        <path d="M87.9760435,6 L88.1088863,6.65826919 C88.1454521,6.84674598 88.0439237,6.99953347 87.8836565,7" id="Path"></path>
                        <path d="M77.7654028,16 L78.2345972,14 L77.7654028,16 Z" id="Path"></path>
                        <path d="M87.9342593,5.76530612 L88.0657407,6.23469388 L87.9342593,5.76530612 Z" id="Path"></path>
                        <path d="M78.7654028,12 C78.7912938,11.8266057 78.8345506,11.5451883 78.8613888,11.3737229 L79.2345972,9 L78.811975,11.6885761 L78.7654028,12 L78.7654028,12 Z" id="Path"></path>
                        <path d="M77,5 C76.9742187,5.15627293 76.9414062,5.35396518 76.9192187,5.48462616 L76,11 L76.9684375,5.1902888 L77,5 L77,5 Z" id="Path"></path>
                        <path d="M87.992379,6.93488774 L87.8564098,6.39725365 L87.722031,5.84666452 L87.6538476,5.56794068 C87.3880717,4.57726127 86.6068455,4.00533443 84.9108095,4.00533443 L82.2703446,4.00266721 L79.8384054,4 L79.6296809,4 L77.1019272,4 C76.9379293,4 76.775323,4.12574008 76.7417283,4.28005745 L76.7417283,4.28005745 L76.6204692,4.82797937 L76.4777414,5.47515974 L76.4379843,5.65653028 L75.2057144,11.1881412 L74.0360618,16.4395041 C74.0012743,16.594012 73.9899436,16.7828126 74.0096233,16.8597808 C74.0295018,16.9369394 74.3447753,17 74.5093695,17 L76.9774876,17 C77.1420818,17 77.35021,16.9716132 77.4394646,16.9369394 C77.528918,16.9022657 77.6615078,16.5926784 77.6943073,16.4385515 L78.1332252,14.3581247 L78.5723419,12.2782695 C78.5725407,12.2775075 78.5727395,12.2756023 78.5731371,12.2742687 L78.6317787,11.99745 L79.1639269,9.60762647 L79.6340541,7.49690779 C79.6688416,7.343543 79.830454,7.21818395 79.9946506,7.21780292 L87.7619868,7.21399261 C87.9259847,7.21342107 88.0297506,7.08863357 87.992379,6.93488774 L87.992379,6.93488774 Z" id="Path"></path>
                        <path d="M97.8892423,2.00574599 C97.7235876,2.00689386 97.4534248,2.00785042 97.28797,2.00785042 L94.7889632,2.00785042 C94.6233086,2.00785042 94.4116944,2.11479372 94.3185761,2.24526837 L88.7922264,9.99684008 C88.6989083,10.1276974 88.5922019,10.1079922 88.5554342,9.95398623 L88.1489909,8.24633706 C88.112423,8.09194844 87.9467684,7.96606527 87.7819131,7.96606527 L84.2290313,7.96606527 C84.0635765,7.96606527 83.9658623,8.09022663 84.0110226,8.24231951 L85.6028256,13.5816407 C85.6483856,13.7337336 85.6517826,13.9839694 85.6108185,14.1370188 L84.9168276,16.7212587 C84.8756638,16.8744995 84.9773745,17 85.1428293,17 L88.6539477,17 C88.818803,17 88.9878547,16.8744995 89.0286189,16.7212587 L89.7232093,14.1370188 C89.7639735,13.9837781 89.8790725,13.7547779 89.9783853,13.6283208 L98.9499113,2.22805031 C99.0496238,2.10159321 98.9956712,1.99905008 98.830616,2 L97.8892423,2.00574599 L97.8892423,2.00574599 Z" id="Path"></path>
                        <path d="M70.2751726,8.18525162 L70.2751726,8.18186348 C70.2550583,8.36063777 70.0949173,8.49177877 69.9349698,8.49177877 L65.5753836,8.49177877 C65.4247196,8.49177877 65.3481304,8.38614848 65.3701788,8.25580468 C65.3715327,8.25201794 65.3719195,8.2486298 65.3742404,8.24544096 C65.3742404,8.24544096 65.3726931,8.24583956 65.3713393,8.24663677 C65.3723063,8.24145491 65.3723063,8.23687095 65.3738536,8.23168909 C65.3738536,8.23168909 65.3819767,8.2 65.3937745,8.15515695 C65.8099862,7.01434978 66.6582691,6.26576981 68.2523293,6.26576981 C70.0469524,6.26616841 70.3968256,7.16960638 70.2751726,8.18525162 L70.2751726,8.18525162 Z M68.995979,3 C63.4001356,3 62.0739441,6.50014948 61.3299076,10.0327853 C60.5860644,13.6333832 60.6502755,17 66.4408797,17 L66.6462779,17 C66.664845,16.9996014 66.6832186,16.9996014 66.7015923,16.9996014 L66.8638607,16.9996014 L66.9232367,16.9996014 L67.0750611,16.9996014 C67.0978832,16.9992028 67.1203184,16.9992028 67.142947,16.9992028 C67.2009691,16.9992028 67.2591846,16.9988042 67.3174,16.9988042 L67.3585957,16.9988042 C67.587783,16.9984056 67.8204515,16.9974091 68.0531201,16.9966119 L68.0649179,16.9966119 C69.5943801,16.9904335 71.1280973,16.978276 71.7497072,16.9732935 C71.9081075,16.9709018 72.0636067,16.8389636 72.0964859,16.6789238 L72.3308951,15.4982561 L72.3763457,15.2682611 L72.6560122,13.8601893 C72.6883112,13.6985551 72.5834846,13.5666168 72.423537,13.5666168 L67.2176021,13.5666168 C65.1471806,13.5666168 64.5321465,12.9996014 64.758626,11.3328351 L73.0805405,11.3328351 L73.0797668,11.3336323 C73.0820877,11.3336323 73.0838284,11.3328351 73.0857624,11.3328351 C73.2178594,11.3302441 73.340286,11.2363727 73.3884443,11.1114101 C73.3975345,11.0872945 73.4054641,11.0623817 73.4085587,11.0366716 L73.4075916,11.0374689 C74.6430752,6.23467862 74.2889471,3.0001993 68.9953988,3.0001993 L68.995979,3 Z" id="Shape"></path>
                        <path d="M42.737678,8.45142281 L42.6594988,8.73254514 C42.6594988,8.73352058 42.6593067,8.73352058 42.6593067,8.73352058 L42.0352172,10.979768 L41.4113199,13.2258202 C41.3681004,13.3809155 41.2029059,13.5077229 41.0438582,13.5077229 L37.7405445,13.5077229 C35.2351587,13.5077229 34.6248995,11.5176266 35.2351587,8.58174184 C35.8450337,5.5791369 37.0411571,3.71253148 39.5071652,3.52329577 C42.877325,3.26538896 43.551357,5.67258422 42.737678,8.45142281 L42.737678,8.45142281 Z M45.0029556,13.3350697 C45.0029556,13.3350697 46.5603939,9.49436518 46.9142175,7.27601545 C47.396547,4.30638044 45.9326548,0 40.2782009,0 C34.6558254,0 32.2145966,4.11168226 31.2829764,8.58154675 C30.3515484,13.0836008 31.5720668,17.0319941 37.1621717,16.9998045 L41.5724806,16.983222 L45.6940832,16.9680051 C45.8529389,16.9664444 46.0152521,16.8388566 46.0555903,16.682981 L46.7736101,13.9014112 C46.8135641,13.7451454 46.7165603,13.6167773 46.5578968,13.615997 L45.8696504,13.6119001 L45.1817882,13.6078032 C45.0465592,13.6066327 44.9695325,13.5182577 44.9856678,13.4004243 C44.9887412,13.3791597 44.9933512,13.3573098 45.0029556,13.3350697 L45.0029556,13.3350697 Z" id="Shape"></path>
                        <path d="M72.2345972,10.9996428 C72.2345972,11.1294329 72.129724,11.2346939 71.9998811,11.2346939 C71.870276,11.2346939 71.7654028,11.1294329 71.7654028,10.9996428 C71.7654028,10.8700908 71.870276,10.7653061 71.9998811,10.7653061 C72.1294862,10.7653061 72.2345972,10.8700908 72.2345972,10.9996428 Z" id="Path"></path>
                        <path d="M1.10633067,5.59416554 C-0.43616219,7.9086046 -0.243970862,10.9196069 0.934179154,13.3788977 C0.962234889,13.4378744 0.991626612,13.495855 1.02063662,13.5540347 C1.03914959,13.590696 1.05651743,13.6283534 1.07579382,13.6646161 C1.08667257,13.6863339 1.09888731,13.7076532 1.11014778,13.7283748 C1.13018759,13.7676262 1.15079997,13.8048852 1.1716032,13.8431404 C1.20824742,13.9104854 1.24584593,13.977432 1.28401699,14.0443786 C1.30520194,14.0812391 1.32619602,14.1179003 1.34814439,14.1547608 C1.39070513,14.22629 1.43422015,14.2974208 1.47868944,14.3679538 C1.49720241,14.3980399 1.51533367,14.4283252 1.5344192,14.4574151 C1.59587462,14.5530531 1.65866603,14.6486911 1.72336599,14.7425358 C1.72508369,14.7449268 1.72699224,14.7473177 1.72870994,14.7497087 C1.73901612,14.7648514 1.75027659,14.7795956 1.76058278,14.7947382 C1.81650339,14.8754328 1.87452342,14.9551311 1.9327343,15.0340324 C1.95430095,15.0627238 1.97605846,15.0914152 1.99762511,15.1203059 C2.04972862,15.1888464 2.1027864,15.2567892 2.15679847,15.3245328 C2.17702913,15.349837 2.1972598,15.3753405 2.21768132,15.4002462 C2.29001549,15.4891098 2.36406736,15.5779734 2.43964608,15.6648446 C2.44098207,15.6664386 2.44269977,15.6682318 2.44403575,15.6696265 C2.44708944,15.6734122 2.44976141,15.6756039 2.45243339,15.6791903 C2.52610355,15.763272 2.60149141,15.8455605 2.6780244,15.9276498 C2.70169046,15.952954 2.72592909,15.9784575 2.75016772,16.0037617 C2.80933287,16.0659264 2.86945231,16.1266963 2.9301443,16.188064 C2.95476464,16.212372 2.97919413,16.237477 3.00381447,16.260988 C3.08492799,16.3406863 3.16680493,16.4189899 3.25039957,16.495301 C3.25192641,16.496895 3.25288069,16.4980905 3.25440753,16.4986882 C3.26853082,16.5118384 3.28322668,16.5245902 3.29734998,16.5367442 C3.37102014,16.6034915 3.44602629,16.6696411 3.52141415,16.7345952 C3.55214186,16.7604972 3.58325128,16.7861999 3.61416984,16.8119026 C3.67581612,16.8635072 3.73822582,16.9143149 3.80101722,16.9643256 C3.83422605,16.9908253 3.86743488,17.017325 3.90083457,17.0436254 C3.97011505,17.0966248 4.03996811,17.1492257 4.11039373,17.2004319 C4.1361592,17.219958 4.16097039,17.2384878 4.18673587,17.2570177 C4.19379751,17.2621981 4.20028659,17.2677769 4.2075391,17.2727581 C4.27452932,17.3205771 4.34266468,17.3672006 4.41099089,17.4132264 C4.44038261,17.4337487 4.46958348,17.4546695 4.49916606,17.4745941 C4.60394564,17.5437324 4.71025206,17.6120737 4.81789448,17.6784225 C4.84709534,17.6957569 4.87667792,17.712892 4.90587879,17.7302264 C4.9848929,17.7778462 5.06447958,17.8246689 5.14502053,17.8702962 C5.18853555,17.8948034 5.23338655,17.9179159 5.27728328,17.9412277 C5.33434903,17.9725093 5.39084221,18.0039901 5.44848052,18.0340762 C5.46164954,18.0410498 5.47520027,18.047625 5.48817843,18.0542001 C5.51127193,18.0659556 5.53474714,18.0773126 5.55822234,18.0896658 C5.64792435,18.1344961 5.73819893,18.1781309 5.82942778,18.2207695 C5.84889503,18.2297356 5.86759885,18.2387017 5.88687524,18.2474685 C5.99127311,18.2950882 6.09681611,18.3413132 6.20331339,18.3849481 C6.22888801,18.3957073 6.25465348,18.4058689 6.28041895,18.4166282 C6.37890031,18.4560788 6.47871765,18.4953302 6.5789167,18.5319915 C6.59170401,18.5365741 6.60391875,18.5409575 6.6165152,18.5453409 C6.72663874,18.5855886 6.83771654,18.6228475 6.94955777,18.6591103 C6.97627752,18.6672794 7.00299727,18.6762454 7.02990787,18.6844145 C7.14384851,18.7202787 7.25626231,18.7629173 7.3738292,18.7856314 C14.8332193,20.2056561 17,14.1059456 17,14.1059456 C15.1801943,16.5809767 11.9499677,17.2339052 8.88941145,16.5070565 C8.77337141,16.4797599 8.66095761,16.4421024 8.54778039,16.4070351 C8.51896124,16.3980691 8.4909055,16.389103 8.46246806,16.3799377 C8.35196282,16.344472 8.2426027,16.3074123 8.13362431,16.2681608 C8.11873759,16.2627812 8.10366002,16.2568038 8.08839159,16.2512249 C7.99086451,16.2153607 7.89448256,16.1777032 7.79829147,16.1390496 C7.77119001,16.1276926 7.74408856,16.1171325 7.7169871,16.1057755 C7.61163495,16.0623399 7.50704622,16.0171111 7.40379348,15.9696906 C7.38241769,15.9603261 7.36218702,15.9503638 7.34119293,15.9406008 C7.2524452,15.8987591 7.16465174,15.856519 7.07685829,15.8124857 C7.05166538,15.799734 7.02628162,15.7871815 7.000707,15.7742305 C6.93218994,15.7393625 6.86405458,15.7023028 6.79649179,15.6658408 C6.75106822,15.6409351 6.70507208,15.6172248 6.66022108,15.5913229 C6.57738986,15.5450979 6.49627634,15.4968804 6.41535368,15.4478659 C6.38787051,15.431727 6.36019648,15.4163851 6.33252246,15.3998477 C6.2250709,15.3336981 6.11876448,15.2651575 6.01360318,15.19582 C5.98459317,15.1764932 5.95615573,15.1559709 5.92752743,15.1360463 C5.85137614,15.0846409 5.77541572,15.0324385 5.70079128,14.9784429 C5.67598009,14.9613077 5.65193231,14.9421801 5.62769369,14.9248457 C5.55555037,14.8716471 5.48417047,14.8176515 5.41317228,14.7630582 C5.38110859,14.7383517 5.3494266,14.712649 5.31812632,14.6879425 C5.25323551,14.6359393 5.18853555,14.5839362 5.12459901,14.5299406 C5.09577985,14.5060311 5.06676984,14.4819224 5.03833239,14.4578136 C4.95702802,14.3878783 4.87667792,14.3179431 4.7972821,14.2460153 C4.78907532,14.2382448 4.77991426,14.2308727 4.77094406,14.2229028 C4.68525001,14.1440015 4.6007011,14.063307 4.51748817,13.9822139 C4.49324954,13.9581052 4.46977434,13.9347934 4.44610827,13.9104854 C4.38427114,13.849317 4.32357914,13.7875508 4.26403228,13.7241906 C4.24017536,13.6992849 4.21612759,13.6745784 4.19265238,13.6498719 C4.11669196,13.5685797 4.04225837,13.4864904 3.96916078,13.4030064 C3.96553453,13.3988223 3.96171742,13.3952358 3.95809117,13.3906532 C3.88079476,13.3025865 3.8054069,13.2123282 3.73135502,13.1212729 C3.71131521,13.0963672 3.69184797,13.0722584 3.67199901,13.0477512 C3.61684182,12.9784136 3.56225719,12.9082791 3.50900855,12.8371484 C3.48896874,12.8118442 3.46892893,12.7855437 3.44907998,12.7594425 C3.38495258,12.6723721 3.32216117,12.5858994 3.26070575,12.4976336 C1.56152066,10.0779927 0.950974424,6.7406258 2.30910103,4" id="Path"></path>
                        <path d="M5.88075836,4.338788 C4.70790264,6.00998805 4.77171241,8.24686477 5.68651981,10.0142318 C5.84002445,10.3104819 6.0123911,10.5979895 6.20522504,10.8715887 C6.38080224,11.1209474 6.57564277,11.4175948 6.8088093,11.6178765 C6.89348768,11.7100697 6.98177793,11.8000773 7.07207478,11.8882966 C7.09494998,11.9115436 7.1182265,11.9335984 7.14150302,11.956448 C7.22899064,12.0402961 7.31808353,12.1231508 7.41018631,12.2034224 C7.41399884,12.2066015 7.41741006,12.210178 7.42122259,12.212761 C7.42222589,12.2139531 7.42322919,12.2143505 7.42383117,12.2155427 C7.52576628,12.303762 7.63091194,12.3890009 7.73786354,12.4726504 C7.76154138,12.4905326 7.78501856,12.5094084 7.80909772,12.5276881 C7.91624998,12.6089532 8.02540884,12.6890262 8.13757759,12.7651253 C8.1409888,12.7675096 8.14379804,12.7696952 8.14700859,12.7724769 C8.19637087,12.8060559 8.2469371,12.8376479 8.29690136,12.8700347 C8.32098052,12.8855327 8.34385572,12.9020242 8.36793488,12.9165287 C8.44779743,12.9671952 8.52886393,13.0166696 8.61133505,13.064157 C8.62297331,13.0713099 8.63441091,13.077072 8.64564785,13.0838275 C8.71668137,13.1243607 8.78871819,13.1642979 8.86095567,13.2030429 C8.88603813,13.21715 8.91172257,13.2294689 8.937407,13.2425826 C8.98737126,13.2684126 9.03713485,13.29464 9.08790175,13.3198739 C9.09532616,13.3234503 9.10315188,13.3268281 9.11057629,13.3300072 C9.21391602,13.380475 9.31825904,13.4289559 9.42460866,13.4748538 C9.4472832,13.4847884 9.47076039,13.4937295 9.49403691,13.5032668 C9.57891594,13.5390314 9.66499894,13.5738025 9.75128259,13.6067854 C9.78800331,13.6204952 9.82492469,13.6336088 9.86164541,13.6469212 C9.93990268,13.6757316 10.0187619,13.701959 10.0980225,13.728385 C10.1339406,13.7397105 10.169056,13.7512346 10.2049741,13.7621627 C10.3177448,13.7967351 10.4291109,13.8406461 10.5466975,13.8599192 C16.6018035,14.8533802 18,10.2369658 18,10.2369658 C16.7396567,12.0337393 14.2994345,12.8914935 11.6952734,12.2220995 C11.5796934,12.192097 11.4657187,12.1593128 11.3525467,12.1239456 C11.3178326,12.1134149 11.2837204,12.1022881 11.2494076,12.0909626 C11.1689431,12.0651327 11.0888799,12.0375144 11.0094187,12.0091015 C10.9730993,11.9961865 10.9367799,11.9828741 10.9010625,11.969363 C10.8139762,11.9361814 10.7280938,11.9020064 10.6428135,11.8660431 C10.619537,11.8561085 10.5960598,11.847366 10.5731846,11.837034 C10.466233,11.7911361 10.3610873,11.7422578 10.2571456,11.6919887 C10.2037701,11.66596 10.151398,11.6385405 10.0988251,11.6121145 C10.0685255,11.5964178 10.0378246,11.5809198 10.0073243,11.5654218 C9.93990268,11.5290611 9.87288235,11.491707 9.80666466,11.4535581 C9.79101321,11.4446169 9.77475977,11.4362719 9.75890766,11.4267346 C9.67683786,11.3792472 9.59597201,11.3303689 9.51610947,11.2800998 C9.49142833,11.2644031 9.46775049,11.2475143 9.44306935,11.2316189 C9.39029586,11.1976425 9.33752237,11.1632688 9.28575218,11.1284977 C9.1741854,11.0523985 9.06542787,10.9725243 8.95847627,10.8914579 C8.93379513,10.8721847 8.90891333,10.8535077 8.88483417,10.8342345 C7.74488663,9.94310003 6.84151683,8.72511688 6.41190449,7.34440482 C5.96162421,5.91223149 6.05854282,4.30461295 6.83850693,3" id="Path"></path>
                        <path d="M10.5896711,2.7198259 C9.89714515,3.74641304 9.82899818,5.0216489 10.3096453,6.15555186 C10.8164256,7.35910886 11.8549129,8.30328556 13.0670846,8.75077226 C13.1171394,8.76960315 13.1669932,8.78620673 13.2176512,8.80362024 C13.2397637,8.81050465 13.2616753,8.81799651 13.2839889,8.82467844 C13.3553523,8.8473565 13.4263135,8.87367924 13.5000892,8.88765055 C16.8495426,9.53964475 17.7581687,7.15622123 18,6.80552124 C17.204148,7.95967247 15.8667387,8.23666876 14.225784,7.83555059 C14.0961238,7.80355833 13.9535982,7.75658235 13.8287626,7.71203616 C13.6685469,7.65453108 13.5107434,7.58892669 13.3571615,7.51481804 C13.0658784,7.37368761 12.788064,7.20258976 12.5305529,7.00678901 C11.0622773,5.88463005 10.1498317,3.74357828 11.1081107,2" id="Path"></path>
                    </g>
                </g>
            </g>
        </g>
    </g>
</svg>