<?xml version="1.0" encoding="UTF-8"?>
<svg width="36px" height="50px" viewBox="0 0 36 50" version="1.1" xmlns="http://www.w3.org/2000/svg" xmlns:xlink="http://www.w3.org/1999/xlink">
    <!-- Generator: Sketch 61.2 (89653) - https://sketch.com -->
    <title>client-3</title>
    <desc>Created with Sketch.</desc>
    <g id="Personal-1-mixed" stroke="none" stroke-width="1" fill="none" fill-rule="evenodd" opacity="0.300000012">
        <g transform="translate(-973.000000, -4933.000000)" fill-rule="nonzero" id="clients">
            <g transform="translate(350.000000, 4446.000000)">
                <g id="Group-5" transform="translate(59.000000, 487.000000)">
                    <g id="client-3" transform="translate(564.000000, 0.000000)">
                        <polygon id="Path" fill="#282642" points="3.27621894 46.0014585 0 10 36 10 32.7203074 45.995819 17.9779673 50"></polygon>
                        <polygon id="Path" fill="#282642" points="18 47 30.1430498 43.7639469 33 13 18 13"></polygon>
                        <g id="Group" transform="translate(7.000000, 17.000000)" fill="#EBEBEB">
                            <polygon id="Path" points="11 8.93575581 5.20184211 8.93575581 4.80140351 4.42984496 11 4.42984496 11 0.0295542636 10.9848509 0.0295542636 0.0127368421 0.0295542636 0.117622807 1.21007752 1.1945614 13.3359496 11 13.3359496"></polygon>
                            <polygon id="Path" points="11 20.3636628 10.9807982 20.3687984 6.10085088 19.0455426 5.78889474 15.5361434 3.41762281 15.5361434 1.39034211 15.5361434 2.0042193 22.445155 10.9798333 24.9473837 11 24.9417636"></polygon>
                        </g>
                        <g id="Group" transform="translate(4.000000, 0.000000)" fill="#282642">
                            <polygon id="Path" points="0.0372996633 0 2.29060943 0 2.29060943 2.28 4.35185522 2.28 4.35185522 0 6.60526263 0 6.60526263 6.9044 4.35195286 6.9044 4.35195286 4.5924 2.29070707 4.5924 2.29070707 6.9044 0.0373973064 6.9044 0.0373973064 0"></polygon>
                            <polygon id="Path" points="9.56843771 2.2896 7.58472054 2.2896 7.58472054 0 13.8065387 0 13.8065387 2.2896 11.8219428 2.2896 11.8219428 6.9044 9.56853535 6.9044 9.56853535 2.2896"></polygon>
                            <polygon id="Path" points="14.7940034 0 17.1435892 0 18.5889024 2.426 20.0327508 0 22.3832155 0 22.3832155 6.9044 20.1391818 6.9044 20.1391818 3.4822 18.5889024 5.9371 18.550138 5.9371 16.9987845 3.4822 16.9987845 6.9044 14.7940034 6.9044 14.7940034 0"></polygon>
                            <polygon id="Path" points="23.5046465 0 25.7586397 0 25.7586397 4.6222 28.9274512 4.6222 28.9274512 6.9044 23.5046465 6.9044"></polygon>
                        </g>
                        <g id="Group" transform="translate(18.000000, 17.000000)" fill="#FFFFFF">
                            <polygon id="Path" points="0.0806347826 8.93575581 0.0806347826 13.3359496 5.42931304 13.3359496 4.92513043 19.0427326 0.0806347826 20.367345 0.0806347826 24.9452519 8.98527826 22.445155 9.0506087 21.7017442 10.071313 10.117345 10.1772957 8.93575581 9.0068 8.93575581"></polygon>
                            <polygon id="Path" points="0.0806347826 0.0295542636 0.0806347826 2.7625 0.0806347826 4.41908915 0.0806347826 4.42984496 10.5585652 4.42984496 10.5585652 4.42984496 10.5725304 4.42984496 10.6596696 3.44079457 10.8575739 1.21007752 10.9614522 0.0295542636"></polygon>
                        </g>
                    </g>
                </g>
            </g>
        </g>
    </g>
</svg>