<?xml version="1.0" encoding="UTF-8"?>
<svg width="1010px" height="482px" viewBox="0 0 1010 482" version="1.1" xmlns="http://www.w3.org/2000/svg" xmlns:xlink="http://www.w3.org/1999/xlink">
    <!-- Generator: Sketch 61.2 (89653) - https://sketch.com -->
    <title>Group</title>
    <desc>Created with Sketch.</desc>
    <g id="Single-Portfolio" stroke="none" stroke-width="1" fill="none" fill-rule="evenodd">
        <g transform="translate(-361.000000, -191.000000)" id="Group">
            <g transform="translate(361.000000, 191.000000)">
                <rect id="Rectangle" fill="#FFD15C" x="0" y="0" width="1010" height="482" rx="20"></rect>
                <g id="undraw_site_content_ihgn" transform="translate(291.000000, 53.000000)" fill-rule="nonzero">
                    <polygon id="Path" fill="#EFEFEF" points="95 100 12 100 12 45 88.2929786 45"></polygon>
                    <circle id="Oval" fill="#3F3D56" cx="65" cy="61" r="8"></circle>
                    <path d="M86,28.0835398 C86.9590624,27.0410938 87.9523768,26.0037491 88.9526238,25 L90,25.9575397 C89.0122197,26.9480364 88.031967,27.9716271 87.085877,29 L86,28.0835398 Z" id="Path" fill="#3F3D56"></path>
                    <path d="M94,20.6051751 C95.6742909,19.1166591 97.430301,17.6810524 99.2195851,16.3384027 L99.8766621,17.2166558 C98.1115396,18.5416465 96.3789481,19.9578612 94.7273774,21.4263309 L94,20.6051751 Z M104.774222,12.5198436 C106.669229,11.3299108 108.638041,10.2049278 110.625421,9.17590285 L111.128618,10.1513144 C109.167707,11.1662411 107.225606,12.2759569 105.356265,13.4498011 L104.774222,12.5198436 Z M116.732993,6.32948346 C118.794663,5.4705095 120.920693,4.68588124 123.052434,3.99665141 L123.389036,5.04153023 C121.285474,5.72117464 119.187768,6.4956669 117.153764,7.34300206 L116.732993,6.32948346 Z M129.792394,3.25540125 L129.541472,2.18708237 C131.722059,1.67317011 133.946731,1.24388395 136.153313,0.910930398 L136.316422,1.99660142 C134.13906,2.32494729 131.944113,2.74844789 129.792394,3.25540125 Z M142.9212,1.2775277 L142.847922,0.182280286 C145.079409,0.032546409 147.344432,-0.0253993694 149.580099,0.0101488313 L149.562829,1.10795507 C147.357071,1.07261898 145.122548,1.12982012 142.9212,1.27750965 L142.9212,1.2775277 Z M156.19585,1.4906048 L156.304141,0.398426163 C158.530362,0.620037175 160.775615,0.938323768 162.977323,1.344391 L162.778989,2.42404179 C160.606852,2.0232637 158.392004,1.70923729 156.19585,1.49058675 L156.19585,1.4906048 Z M197.259783,146.128593 C199.009749,144.785672 200.726593,143.351415 202.362835,141.865345 L203.098699,142.678752 C201.440092,144.185058 199.699883,145.638974 197.926153,147 L197.259783,146.128593 Z M169.261882,3.899511 L169.54839,2.84007353 C171.706212,3.42623299 173.867628,4.11031359 175.972965,4.87326182 L175.600296,5.90531495 C173.523104,5.15275543 171.390565,4.47775932 169.261882,3.899511 Z M207.097659,137.194342 C208.604129,135.580074 210.062695,133.88252 211.43255,132.148808 L212.291727,132.830375 C210.903088,134.587536 209.424753,136.307988 207.897927,137.943878 L207.097659,137.194342 Z M181.752435,8.42629478 L182.208471,7.42789443 C184.242705,8.36085757 186.262796,9.38944478 188.213401,10.4857166 L187.67756,11.4429051 C185.752918,10.3614581 183.759553,9.3463916 181.752435,8.42629478 Z M215.340445,126.76403 C216.564529,124.923493 217.727056,123.009829 218.795899,121.076002 L219.754407,121.607889 C218.671019,123.567657 217.492844,125.507279 216.252513,127.372546 L215.340445,126.76403 Z M193.335898,14.9350182 L193.948102,14.0249536 C195.802358,15.2770518 197.627916,16.6219309 199.373872,18.0221698 L198.689268,18.8790994 C196.966397,17.4974988 195.165406,16.1705856 193.335898,14.9350182 Z M221.775074,115.123901 C222.682745,113.108029 223.518062,111.029603 224.257457,108.946836 L225.289981,109.314593 C224.540294,111.4258 223.693955,113.532026 222.774018,115.575183 L221.775074,115.123901 Z M203.700642,23.2485451 L204.453158,22.4508881 C206.079252,23.990928 207.659851,25.6164966 209.151227,27.2827672 L208.335418,28.015488 C206.864236,26.3716691 205.304808,24.7679971 203.700642,23.2485451 Z M226.225053,102.586316 C226.791623,100.445843 227.275221,98.2583534 227.662339,96.0846421 L228.741201,96.2774878 C228.348524,98.4808896 227.858272,100.698101 227.28432,102.86762 L226.225053,102.586316 Z M212.561118,33.1485994 L213.434303,32.4856528 C214.784218,34.2713304 216.075575,36.1348558 217.27233,38.0247051 L216.347047,38.6126291 C215.166629,36.7484222 213.89283,34.9099435 212.561118,33.1485994 Z M228.558371,89.4859176 C228.764673,87.2854222 228.881216,85.0479209 228.904571,82.8358498 L230,82.8476962 C229.97641,85.0897465 229.858408,87.3577912 229.649219,89.5886811 L228.558371,89.4859176 Z M219.670192,44.3764469 L220.640871,43.8675169 C221.677022,45.8499124 222.643908,47.902962 223.514963,49.9691261 L222.505613,50.3961964 C221.646176,48.3577641 220.692339,46.3325863 219.670192,44.3764469 L219.670192,44.3764469 Z M228.698972,76.1800957 C228.539867,73.9796002 228.286368,71.7541033 227.945203,69.5656122 L229.027866,69.3963509 C229.373413,71.6144467 229.630629,73.8702434 229.791711,76.1007046 L228.698972,76.1800957 Z M224.836225,56.629515 L225.877136,56.2867052 C226.574487,58.4119795 227.195056,60.6024021 227.718226,62.7775215 L226.652882,63.0347574 C226.136717,60.8866298 225.524161,58.7270529 224.836225,56.629515 L224.836225,56.629515 Z" id="Shape" fill="#3F3D56"></path>
                    <path d="M187,153.572413 C188.10823,152.74736 189.21837,151.882027 190.299575,151 L191,152.392563 C189.903903,153.286611 188.778545,154.164082 187.655177,155 L187,153.572413 Z" id="Path" fill="#3F3D56"></path>
                    <polygon id="Path" fill="#6C6CE5" points="12 80.9456509 29.0935893 64.4211604 44.5653333 79.3773585 73.92 51 98 74.7216981 98 98 12 98"></polygon>
                    <path d="M287,234 L287,344 L427,344 L427,234 L287,234 Z M408.718389,263.416766 L397.875407,263.416766 L397.875407,252.458064 L408.718389,252.458064 L408.718389,263.416766 Z" id="Shape" fill="#3F3D56"></path>
                    <rect id="Rectangle" fill="#3F3D56" x="61" y="194" width="8" height="12"></rect>
                    <polygon id="Rectangle" fill="#3F3D56" transform="translate(204.328767, 271.244222) rotate(45.000000) translate(-204.328767, -271.244222) " points="199.82704 265.386331 208.85177 265.369965 208.830494 277.102113 199.805764 277.11848"></polygon>
                    <polygon id="Rectangle" fill="#3F3D56" transform="translate(177.657533, 66.754378) rotate(45.000000) translate(-177.657533, -66.754378) " points="173.155807 60.8964873 182.180536 60.880121 182.15926 72.6122694 173.134531 72.6286357"></polygon>
                    <path d="M297,308.58296 C296.603578,309.729531 296.186419,310.879075 295.759962,312 L295,311.371707 C295.421256,310.265416 295.832951,309.131087 296.224002,308 L297,308.58296 Z" id="Path" fill="#3F3D56"></path>
                    <path d="M295,318.87912 C293.734631,320.743473 292.376047,322.576819 290.961641,324.328134 L290.09889,323.63873 C291.494075,321.9106 292.834593,320.101958 294.08276,318.26274 L295,318.87912 Z M286.483258,329.425229 C284.92718,331.05455 283.282637,332.639162 281.595897,334.135172 L280.859368,333.312942 C282.523738,331.83724 284.145975,330.274124 285.68097,328.666877 L286.483258,329.425229 Z M276.333147,338.425633 C274.53115,339.774946 272.647589,341.068095 270.73452,342.269935 L270.143589,341.338623 C272.031458,340.153117 273.889864,338.876904 275.667717,337.545804 L276.333147,338.425633 Z M264.325971,344.672684 L264.838947,345.648162 C262.83421,346.691851 260.765156,347.664333 258.689674,348.538652 L258.258267,347.524394 C260.306311,346.661823 262.34773,345.702393 264.325971,344.672684 Z M251.976426,349.871799 L252.322339,350.917783 C250.176613,351.620302 247.975114,352.241974 245.778916,352.765507 L245.520958,351.694429 C247.687826,351.178157 249.859662,350.564801 251.976426,349.871799 Z M238.935625,352.978315 L239.103138,354.066656 C236.869592,354.407007 234.593209,354.658173 232.33748,354.813183 L232.261203,353.714552 C234.486686,353.561756 236.732238,353.31404 238.935625,352.978315 L238.935625,352.978315 Z M162.5461,222.680431 C161.170233,224.422197 159.849637,226.244452 158.620892,228.09693 L157.697287,227.490211 C158.942865,225.61248 160.281409,223.765272 161.675984,222 L162.5461,222.680431 Z M225.549138,353.898997 L225.534092,355 C223.276193,354.969043 220.99026,354.843813 218.739449,354.627986 L218.845653,353.53209 C221.066342,353.744857 223.321734,353.868457 225.549138,353.898997 Z M155.158014,233.817726 C154.088306,235.762364 153.086331,237.776022 152.180192,239.802646 L151.168954,239.35482 C152.0876,237.300716 153.103187,235.2599 154.187395,233.289141 L155.158014,233.817726 Z M212.195421,352.618063 L211.999228,353.702066 C209.775427,353.30326 207.54149,352.808004 205.358608,352.229633 L205.643203,351.165753 C207.796973,351.73621 210.001356,352.224993 212.195421,352.618063 Z M149.705054,246.01064 C148.968283,248.104687 148.310042,250.254422 147.74851,252.400369 L146.677555,252.122782 C147.246821,249.947998 147.913871,247.76913 148.660345,245.647002 L149.705054,246.01064 Z M199.232934,349.184804 L198.861835,350.221951 C196.734202,349.468108 194.611415,348.61695 192.552643,347.692125 L193.007872,346.688529 C195.039401,347.601021 197.133654,348.440852 199.232934,349.184804 Z M146.324067,258.927826 C145.940757,261.113267 145.643915,263.34143 145.441995,265.549869 L144.339735,265.450245 C144.544604,263.211601 144.845281,260.953671 145.233754,258.738655 L146.324067,258.927826 Z M187.010912,343.69357 L186.474393,344.656495 C184.497886,343.565904 182.544485,342.380841 180.668172,341.13396 L181.28287,340.218294 C183.13382,341.448443 185.061024,342.617512 187.010912,343.69357 Z M145.109471,272.221666 C145.091077,274.443025 145.165648,276.689388 145.33115,278.898261 L144.227348,278.980176 C144.059844,276.741047 143.984354,274.464167 144.002689,272.212725 L145.109471,272.221666 Z M175.863394,336.285174 L175.175085,337.147347 C173.407286,335.749128 171.67728,334.260642 170.033229,332.722964 L170.791291,331.920698 C172.41295,333.437524 174.119498,334.906055 175.863394,336.285174 L175.863394,336.285174 Z M146.106682,285.534063 C146.455798,287.723845 146.901991,289.92715 147.432997,292.082508 L146.358302,292.344431 C145.820022,290.159895 145.367605,287.926526 145.013704,285.706497 L146.106682,285.534063 Z M166.096938,327.149354 L165.274682,327.886188 C163.764604,326.218491 162.304594,324.464827 160.935069,322.674533 L161.815653,322.007589 C163.166872,323.773857 164.607133,325.503676 166.096938,327.149354 Z M149.300602,298.498738 C150.007228,300.597312 150.812436,302.696588 151.694181,304.738056 L150.677316,305.17278 C149.783888,303.10366 148.967437,300.975854 148.251385,298.848673 L149.300602,298.498738 Z M157.974784,316.532282 L157.042226,317.125221 C155.827843,315.234117 154.672268,313.260529 153.615821,311.277501 L154.593707,310.76161 C155.63655,312.720186 156.776553,314.665783 157.974784,316.532282 Z" id="Shape" fill="#3F3D56"></path>
                    <path d="M169,212.998121 C167.998373,213.974328 167.003313,214.984197 166.042611,216 L165,215.042844 C165.973971,214.013145 166.982598,212.989219 167.997998,212 L169,212.998121 Z" id="Path" fill="#3F3D56"></path>
                    <path d="M406.453318,240 C406.355767,239.832368 404.055614,235.793496 403.258175,227.406674 C402.526743,219.712207 402.997071,206.742581 409.393168,188.651022 C421.510388,154.377769 406.600684,126.724218 406.448341,126.448761 L407.183921,126 C407.222527,126.069847 411.069821,133.120416 413.342578,144.34737 C416.345601,159.231947 415.252089,174.708314 410.190198,188.962709 C398.093747,223.177448 407.086795,239.374439 407.178944,239.534212 L406.453318,240 Z" id="Path" fill="#3F3D56"></path>
                    <circle id="Oval" fill="#6C6CE5" cx="402" cy="118" r="6"></circle>
                    <circle id="Oval" fill="#3F3D56" cx="419" cy="141" r="6"></circle>
                    <circle id="Oval" fill="#6C6CE5" cx="406" cy="155" r="6"></circle>
                    <circle id="Oval" fill="#6C6CE5" cx="423" cy="167" r="6"></circle>
                    <circle id="Oval" fill="#3F3D56" cx="402" cy="188" r="6"></circle>
                    <path d="M411.888889,242 C411.888889,242 406.333333,227.142857 423,216 L411.888889,242 Z" id="Path" fill="#3F3D56"></path>
                    <path d="M405,241 C405,241 402.139532,224.862573 380,225.000884 L405,241 Z" id="Path" fill="#3F3D56"></path>
                    <path d="M217,332 C214.238576,332 212,329.761424 212,327 C212,324.238576 214.238576,322 217,322 C219.761424,322 222,324.238576 222,327 C221.996843,329.760115 219.760115,331.996843 217,332 Z M217,322.833333 C214.698814,322.833333 212.833333,324.698814 212.833333,327 C212.833333,329.301186 214.698814,331.166667 217,331.166667 C219.301186,331.166667 221.166667,329.301186 221.166667,327 C221.164109,324.699874 219.300126,322.835891 217,322.833333 Z" id="Shape" fill="#2F2E41"></path>
                    <path d="M274,43 L266,43 L266,35 L274,35 L274,43 Z M266.615385,42.3846154 L273.384615,42.3846154 L273.384615,35.6153846 L266.615385,35.6153846 L266.615385,42.3846154 Z" id="Shape" fill="#3F3D56"></path>
                    <path d="M32.7911689,289 L27,282.791169 L33.2088311,277 L39,283.208835 L32.7911689,289 Z M27.9231007,282.823296 L32.823318,288.076921 L38.0769423,283.176704 L33.1767035,277.923079 L27.9231007,282.823296 Z" id="Shape" fill="#2F2E41"></path>
                    <polygon id="Path" fill="#EFEFEF" points="273 233 110 233 110 168 245.584229 168"></polygon>
                    <path d="M274,232 L91,232 L91,153 L240.813793,153 L240.940371,153.301686 L274,232 Z M91.9932308,231.024692 L272.515995,231.024692 L240.148897,153.975304 L91.9932308,153.975304 L91.9932308,231.024692 Z" id="Shape" fill="#3F3D56"></path>
                    <rect id="Rectangle" fill="#6C6CE5" x="136" y="177" width="82" height="6"></rect>
                    <rect id="Rectangle" fill="#6C6CE5" x="136" y="194" width="82" height="6"></rect>
                    <rect id="Rectangle" fill="#6C6CE5" x="136" y="208" width="82" height="6"></rect>
                    <path d="M134,108 L0,108 L0,26 L104.135836,26 L104.243562,26.2954523 L134,108 Z M0.895028996,107.098901 L132.718641,107.098901 L103.510891,26.9010989 L0.895028996,26.9010989 L0.895028996,107.098901 Z" id="Shape" fill="#3F3D56"></path>
                    <path d="M98,100 L12,100 L12,36 L98,36 L98,100 Z M12.9100529,99.0921986 L97.0899471,99.0921986 L97.0899471,36.9078014 L12.9100529,36.9078014 L12.9100529,99.0921986 Z" id="Shape" fill="#3F3D56"></path>
                    <circle id="Oval" fill="#6C6CE5" cx="134" cy="110" r="8"></circle>
                    <circle id="Oval" fill="#6C6CE5" cx="273" cy="233" r="8"></circle>
                    <circle id="Oval" fill="#A0616A" cx="330" cy="107" r="13"></circle>
                    <path d="M320.138077,113.142856 C320.138077,113.142856 324.710321,123.428574 318.423485,127.428574 C312.136648,131.428574 328.711033,148 328.711033,148 L347,128.571431 C347,128.571431 337.283984,122.285713 338.998576,112 L320.138077,113.142856 Z" id="Path" fill="#A0616A"></path>
                    <path d="M288.519683,157 L284.465197,179.884551 C284.465197,179.884551 277.51465,193.615278 277.51465,205.629667 C277.51465,217.644056 276.35624,219.932514 276.35624,219.932514 C276.35624,219.932514 264.771994,242.817061 272.880964,243.961288 C280.989935,245.105515 284.465211,220.504626 284.465211,220.504626 C284.465211,220.504626 295.470243,193.615278 295.470243,185.033561 L303,166.153806 L288.519683,157 Z" id="Path" fill="#A0616A"></path>
                    <path d="M370.986799,159 L372.025728,179.028735 C372.025728,179.028735 375.662024,189.329227 373.064657,207.641212 L370.986775,225.38095 C370.986775,225.38095 375.662012,245.409686 370.986775,245.981937 C366.311537,246.554189 360.597355,233.392444 363.714182,225.953202 L363.714182,219.658453 C363.714182,219.658453 360.597355,192.762727 361.636296,188.184728 L358,166.439243 L370.986799,159 Z" id="Path" fill="#A0616A"></path>
                    <polygon id="Path" fill="#A0616A" points="297 315.375 302.625 330 315 327.75 307.125 312"></polygon>
                    <polygon id="Path" fill="#A0616A" points="351.68 328 350 350 364 350 363.44 330.894676"></polygon>
                    <path d="M305.663948,196.816153 L303.962202,205.399367 C303.962202,205.399367 300.558663,208.26044 300.558663,211.121512 C300.558663,213.982585 299.424165,215.127013 299.424165,215.127013 C299.424165,215.127013 298.856916,215.127013 298.289667,216.271428 C297.996602,216.896433 297.614381,217.474777 297.155169,217.98805 C297.155169,217.98805 263.687065,252.320915 271.061395,269.487348 C278.435726,286.65378 292.617061,321.558876 292.617061,321.558876 C292.617061,321.558876 309.067505,316.408946 309.067505,312.403445 L293.184337,267.198505 L324.950655,234.010082 L350.477176,268.915181 C350.477176,268.915181 345.371868,330.142126 348.775429,330.714338 C352.17899,331.28655 370.898411,335.292055 371.465669,333.575411 C372.032927,331.858766 374.869203,255.75425 373.734692,252.893177 C372.600181,250.032104 356.149755,215.699248 356.149755,215.699248 C356.149755,215.699248 358.986035,212.265959 357.284253,211.121531 C355.58247,209.977102 352.746198,199.104982 352.746198,199.104982 C352.746198,199.104982 308.500229,191.666201 305.663948,196.816153 Z" id="Path" fill="#2F2E41"></path>
                    <path d="M331.068378,136.800506 L319.525655,129.726784 C319.525655,129.726784 312.743571,129.972319 311.025643,131.679367 C309.307716,133.386415 299,137.938537 299,137.938537 C299,137.938537 301.290597,206.220402 305.871797,203.944337 C310.452996,201.668272 307.017082,199.961228 310.452992,201.668276 C313.888901,203.375324 354.547017,203.944337 355.119669,203.944337 C355.692321,203.944337 356.264954,202.80632 356.264954,202.80632 L358.555552,168.096354 L366,139.076562 L343.960136,129 L331.068378,136.800506 Z" id="Path" fill="#D0CDE1"></path>
                    <path d="M303,137 L298.699849,137 C298.699849,137 292.787145,138.72129 290.099551,147.90164 C287.411958,157.08199 286.336921,161.09836 287.411958,162.245905 C288.486994,163.39345 303,172 303,172 L303,137 Z" id="Path" fill="#D0CDE1"></path>
                    <path d="M357.214758,137 L365.644273,137.589266 C365.644273,137.589266 376.482219,162.338744 373.471678,163.51729 C370.461136,164.695836 353,173.534937 353,171.767116 C353,169.999295 357.214758,137 357.214758,137 Z" id="Path" fill="#D0CDE1"></path>
                    <path d="M305.406704,323.590868 L300.830116,322 L290.252153,335.257399 C290.252153,335.257399 270.607363,348.514799 288.568335,347.984505 C288.568335,347.984505 302.600327,345.863318 303.72289,342.151246 C303.72289,342.151246 320,337.90888 320,335.257399 C320,332.605919 316.259313,325.53753 315.042619,325.359644 C313.825924,325.181758 308.774385,327.30294 305.406704,323.590868 Z" id="Path" fill="#2F2E41"></path>
                    <path d="M363.713489,344.063289 C363.713489,344.063289 349.40578,343.838998 349.497267,344.234885 C349.588754,344.630772 345.46904,353.710472 346.057573,357.115358 C346.646105,360.520243 351.94288,365.060095 350.765819,367.330023 C349.588759,369.599952 354.297001,376.409723 363.713489,376.977201 C373.129978,377.54468 371.952918,367.330023 371.952918,367.330023 L367.244676,356.547879 L363.713489,344.063289 Z" id="Path" fill="#2F2E41"></path>
                    <path d="M320.551122,93.5620624 C319.837049,94.1552965 319.091818,94.7118424 318.318454,95.2294401 C317.343266,96.0191489 316.442488,96.8925064 315.626912,97.8390496 L314.706563,98.8447705 C313.923348,99.7006297 313.092324,100.677437 313.125373,101.824529 C313.137625,102.250168 313.271649,102.663167 313.324141,103.08588 C313.532381,104.762729 312.482335,106.605791 313.346704,108.069123 C313.596603,108.492186 313.983121,108.822975 314.258613,109.230616 C314.60914,109.75311 314.764421,110.377572 314.698288,110.998772 C315.627162,111.035938 316.389129,110.223458 316.680455,109.361752 C316.971781,108.500047 316.932375,107.569158 317.074254,106.672385 C317.216133,105.775611 317.614644,104.826048 318.44948,104.426802 C320.230749,103.574944 322.27618,105.789737 324.177457,105.237819 C325.504965,104.85245 326.205066,103.246197 327.562295,102.97685 C328.533709,102.784069 329.468859,103.347426 330.371805,103.746723 C331.274751,104.14602 332.491897,104.330853 333.130359,103.590707 C333.553069,103.100673 333.598186,102.315405 334.15885,101.982403 C334.830789,101.583309 335.672274,102.138975 336.181016,102.724503 C336.689757,103.310031 337.251693,104.026015 338.037938,104.004704 C339.080996,103.97643 339.879941,102.620551 340.869993,102.942219 C341.987465,103.305289 341.473521,105.050677 342.15154,105.990636 C342.724757,106.785311 343.925164,106.738509 344.911752,106.607217 C345.249945,106.640658 345.582021,106.502163 345.791029,106.240508 C346,105.978852 346.056662,105.630738 345.940959,105.318764 L345.528871,99.9849947 C345.527072,99.6173966 345.444666,99.2544343 345.287191,98.9205085 C345.000295,98.4131979 344.406182,98.1562746 344.002171,97.7316797 C343.152712,96.8389449 343.193537,95.2738867 342.137232,94.6247133 C341.588755,94.2876316 340.871317,94.2977509 340.326718,93.9547264 C339.628328,93.5148193 339.40332,92.6338044 338.914089,91.9779063 C338.214685,91.0402329 336.991912,90.6054912 335.809912,90.4862035 C334.627912,90.3669158 333.434903,90.5107841 332.247102,90.4729749 C329.832315,90.3960823 327.417598,89.7327419 324.991035,90.1210547 C322.873907,90.459898 321.985071,92.2133309 320.551122,93.5620624 Z" id="Path" fill="#2F2E41"></path>
                </g>
            </g>
        </g>
    </g>
</svg>