<?xml version="1.0" encoding="UTF-8"?>
<svg width="42px" height="58px" viewBox="0 0 42 58" version="1.1" xmlns="http://www.w3.org/2000/svg" xmlns:xlink="http://www.w3.org/1999/xlink">
    <!-- Generator: Sketch 61.2 (89653) - https://sketch.com -->
    <title>client-6</title>
    <desc>Created with Sketch.</desc>
    <g id="Personal-1-mixed" stroke="none" stroke-width="1" fill="none" fill-rule="evenodd" opacity="0.300000012">
        <g transform="translate(-696.000000, -5029.000000)" fill="#282642" fill-rule="nonzero" id="clients">
            <g transform="translate(350.000000, 4446.000000)">
                <g id="Group-5" transform="translate(59.000000, 487.000000)">
                    <g id="client-6" transform="translate(287.000000, 96.000000)">
                        <g id="#000000ff" transform="translate(9.000000, 0.000000)">
                            <path d="M0.0449029126,0.116363636 C2.5934466,0.0848484848 5.14199029,0.106666667 7.69053398,0.105454545 C7.69660194,0.901818182 7.70873786,1.69818182 7.67961165,2.49454545 C5.91383495,2.48242424 4.14927184,2.49454545 2.38470874,2.50545455 C2.37257282,3.66181818 2.34951456,4.81818182 2.36043689,5.97454545 C4.13228155,5.98545455 5.90533981,6.00242424 7.67718447,5.99515152 C7.69781553,6.64969697 7.69053398,7.30666667 7.6711165,7.96242424 C5.12985437,7.94545455 2.58859223,7.95272727 0.0473300971,7.95515152 C0.0533980583,5.34181818 0.0582524272,2.72969697 0.0449029126,0.116363636 Z" id="Path"></path>
                            <path d="M8.59951456,0.107878788 C11.1796117,0.103030303 13.7597087,0.0872727273 16.3410194,0.116363636 C16.3313107,0.869090909 16.3385922,1.62060606 16.3385922,2.37333333 C14.461165,2.36727273 12.5825243,2.37575758 10.7050971,2.39757576 C10.7075243,2.69333333 10.7075243,2.98909091 10.7050971,3.28484848 C12.5800971,3.31515152 14.4538835,3.31878788 16.3276699,3.32969697 C16.3349515,4.87272727 16.3313107,6.41454545 16.3410194,7.95636364 C13.7597087,7.95151515 11.1783981,7.95393939 8.59708738,7.96606061 C8.58373786,7.3430303 8.58252427,6.72121212 8.60072816,6.09818182 C10.3895631,6.1030303 12.1796117,6.10545455 13.9684466,6.09090909 C13.9793689,5.68969697 13.9842233,5.28727273 13.9830097,4.88606061 C12.1856796,4.88606061 10.3871359,4.89212121 8.58980583,4.88 C8.58980583,3.28969697 8.58980583,1.69818182 8.59951456,0.107878788 Z" id="Path"></path>
                            <path d="M17.2050971,0.121212121 C19.7803398,0.121212121 22.3567961,0.121212121 24.9320388,0.121212121 C24.9429612,0.877575758 24.9538835,1.63393939 24.9296117,2.38909091 C23.0436893,2.38787879 21.157767,2.39878788 19.2718447,2.40242424 C19.276699,2.71151515 19.2839806,3.02060606 19.2997573,3.32969697 C21.1747573,3.32121212 23.0497573,3.34424242 24.9235437,3.36363636 C24.940534,4.89939394 24.9526699,6.43515152 24.9308252,7.97090909 C22.3495146,7.96363636 19.7682039,7.96363636 17.1868932,7.97575758 C17.1711165,7.35515152 17.1662621,6.73212121 17.1929612,6.11151515 C18.9781553,6.12484848 20.7645631,6.12242424 22.5509709,6.10545455 C22.5558252,5.7030303 22.5643204,5.30060606 22.5606796,4.89939394 C20.7682039,4.91636364 18.9745146,4.90666667 17.1808252,4.90060606 C17.1808252,3.30787879 17.1929612,1.71393939 17.2050971,0.121212121 Z" id="Path"></path>
                        </g>
                        <g id="#0170baff" transform="translate(0.000000, 11.000000)">
                            <path d="M0,0.0557216495 C13.9901754,0.0543229143 27.9791228,0.0532989691 41.9692982,0.0557216495 C41.1992982,8.63806701 40.4415789,17.2204124 39.6396491,25.8003351 C39.1631579,31.2840722 38.6719298,36.7678093 38.1536842,42.2479124 C35.1682456,43.0280155 32.2122807,43.9171392 29.2280702,44.7008763 C26.4870175,45.4943041 23.7238596,46.2126289 20.9815789,47 L20.9005263,47 C18.2908772,46.234433 15.6554386,45.5609278 13.0457895,44.7953608 C9.96578947,43.9764948 6.91280702,43.0631443 3.83157895,42.2479124 C3.43,38.1402577 3.0677193,34.0301804 2.71035088,29.9201031 C2.03614035,22.3262113 1.30298246,14.7371649 0.654561404,7.14206186 C0.429824561,4.85626289 0.268947368,2.56319588 0,0.282242268 L0,0.0557216495 M21.0503509,3.44141753 C21.0208772,5.09005155 21.0724561,6.73989691 21.0208772,8.38731959 C16.2215789,8.37036082 11.4210526,8.38368557 6.62175439,8.38853093 C6.70403509,9.98871134 6.92140351,11.5779897 7.14491228,13.1648454 C11.6101754,13.3283763 16.0815789,13.1587887 20.5468421,13.2908247 C16.6403509,15.0194072 12.6859649,16.6474485 8.7622807,18.3396907 C8.42578947,18.4874742 8.06596491,18.5989175 7.76508772,18.8145361 C7.79824561,20.5721907 8.08561404,22.3201546 8.21210526,24.0741753 C10.5921053,24.0656959 12.9708772,24.0281443 15.3508772,24.0245103 C17.2580702,24.0148196 19.1664912,24.0523711 21.0736842,24.0111856 C20.982807,26.9014433 21.1019298,29.7953351 21.0122807,32.6855928 C19.7289474,32.4978351 18.4615789,32.2155928 17.1831579,31.9914948 C16.1749123,31.7746649 15.1421053,31.6620103 14.1485965,31.3773454 C14.0073684,29.9903608 13.9091228,28.5985309 13.7838596,27.2103351 C13.4964912,27.1231186 13.1919298,27.1315979 12.8947368,27.1267526 C11.4529825,27.135232 10.01,27.1219072 8.56701754,27.1437113 C8.70824561,29.8122938 8.95140351,32.4772423 9.36526316,35.1203866 C10.7873684,35.4862113 12.2119298,35.844768 13.6315789,36.2263402 C15.8064912,36.8102062 18.0084211,37.2959536 20.1870175,37.8701289 C20.4461404,37.9246392 20.7077193,38.0191237 20.9766667,37.9973196 C21.1215789,39.7525515 21.0098246,41.5186856 21.0368421,43.2787629 C21.5391228,43.1988144 22.032807,43.0764691 22.5178947,42.9286856 C26.6417544,41.8239433 30.7607018,40.6986082 34.8821053,39.5829639 C35.087193,37.9839948 35.1829825,36.3741237 35.3450877,34.7715206 C35.7736842,29.8995103 36.2059649,25.0275 36.6554386,20.156701 C37.1822807,14.5845361 37.6378947,9.00631443 38.1684211,3.43414948 C32.4615789,3.43899485 26.7559649,3.42324742 21.0503509,3.44141753 Z" id="Shape"></path>
                        </g>
                        <g id="#29a9dfff" transform="translate(18.000000, 14.000000)">
                            <path d="M0.187666003,0.309276984 C7.15716382,0.290580817 14.1266616,0.306784162 21.0976596,0.301798517 C20.4496133,6.03528974 19.8930735,11.775013 19.2495276,17.5085042 C18.7004883,22.5203234 18.1724506,27.533389 17.6489132,32.5464546 C17.4508991,34.1954565 17.3338907,35.8519369 17.0833728,37.4971996 C12.0490132,38.6451443 7.01765386,39.8030602 1.98029405,40.9397872 C1.38775172,41.0918493 0.784708649,41.2177369 0.171164825,41.3 C0.138162468,39.4889646 0.274672218,37.6716972 0.0976595745,35.8656474 C0.142662789,35.858169 0.234169325,35.843212 0.27917254,35.8357336 C4.96400717,34.8585473 9.61733955,33.7828944 14.2916734,32.7708086 C14.8827156,27.2616714 15.5382625,21.755027 15.9537922,16.2346721 C11.9785082,16.2521218 8.00172415,16.2421505 4.0264402,16.2558611 C3.44739884,16.2583539 2.86835748,16.2558611 2.29231634,16.2209615 C4.43146913,15.3060958 6.68162986,14.5806845 8.87778673,13.7642852 C10.9854373,12.9703213 13.1185896,12.2262139 15.2337407,11.4472069 C15.6417699,11.2914055 16.0768009,11.1617787 16.4353266,10.9299463 C16.5763366,10.4999344 16.5688361,10.04998 16.6243401,9.60999688 C16.7458487,8.21401641 16.9618642,6.8255144 17.0428699,5.42828752 C11.4129678,5.39089518 5.78306567,5.42330187 0.151663432,5.39837365 C0.214667932,3.70325451 0.151663432,2.00564254 0.187666003,0.309276984 Z" id="Path"></path>
                            <path d="M2.81313721,20.6331753 C5.1243617,20.594271 7.4368617,20.6557648 9.7493617,20.6407051 C9.62053517,22.9661751 9.4241066,25.2878801 9.30165762,27.61335 C7.88456578,28.0689062 6.44579027,28.4541837 5.01721884,28.8758555 C4.25573925,29.1042611 3.4738515,29.2849776 2.7493617,29.6200561 C2.84247395,26.6256841 2.71874946,23.6275472 2.81313721,20.6331753 Z" id="Path"></path>
                        </g>
                    </g>
                </g>
            </g>
        </g>
    </g>
</svg>