<?xml version="1.0" encoding="UTF-8"?>
<svg width="43px" height="43px" viewBox="0 0 43 43" version="1.1" xmlns="http://www.w3.org/2000/svg" xmlns:xlink="http://www.w3.org/1999/xlink">
    <!-- Generator: Sketch 61.2 (89653) - https://sketch.com -->
    <title>client-8</title>
    <desc>Created with Sketch.</desc>
    <g id="Personal-1-mixed" stroke="none" stroke-width="1" fill="none" fill-rule="evenodd" opacity="0.300000012">
        <g transform="translate(-1254.000000, -5040.000000)" fill="#454360" fill-rule="nonzero" id="clients">
            <g transform="translate(350.000000, 4446.000000)">
                <g id="Group-5" transform="translate(59.000000, 487.000000)">
                    <path d="M866.144,149.224 C869.888,149.224 873.392,148.248 876.656,146.296 C879.792,144.408 882.288,141.864 884.144,138.664 C886.064,135.368 887.024,131.832 887.024,128.056 C887.024,124.28 886.048,120.76 884.096,117.496 C882.208,114.36 879.664,111.864 876.464,110.008 C873.2,108.12 869.68,107.176 865.904,107.176 C862.16,107.176 858.656,108.136 855.392,110.056 C852.256,111.912 849.76,114.408 847.904,117.544 C845.984,120.808 845.024,124.328 845.024,128.104 C845.024,131.88 846,135.416 847.952,138.712 C849.84,141.912 852.384,144.44 855.584,146.296 C858.88,148.248 862.4,149.224 866.144,149.224 Z M861.344,139.576 L854.576,119.272 L855.68,119.176 C856.416,119.112 856.832,119.048 856.928,118.984 L857.072,118.888 C857.2,118.824 857.296,118.712 857.36,118.552 C857.424,118.392 857.408,118.184 857.312,117.928 L857.216,117.832 C857.152,117.736 857.008,117.656 856.784,117.592 C856.496,117.56 856.112,117.56 855.632,117.592 L850.4,117.688 L850.976,116.824 C851.52,116.12 852.128,115.432 852.8,114.76 C853.76,113.8 854.784,112.968 855.872,112.264 C857.248,111.336 858.72,110.632 860.288,110.152 C862.112,109.544 864.032,109.224 866.048,109.192 L867.248,109.24 C868.24,109.304 869.248,109.464 870.272,109.72 C871.712,110.072 873.072,110.568 874.352,111.208 C875.952,112.008 877.392,113 878.672,114.184 L878.048,114.232 C877.568,114.296 877.152,114.44 876.8,114.664 C876.256,114.952 875.872,115.368 875.648,115.912 C875.328,116.584 875.248,117.432 875.408,118.456 L875.504,118.84 C875.6,119.16 875.744,119.512 875.936,119.896 C876.192,120.44 876.528,121.016 876.944,121.624 L877.376,122.392 C877.696,123 877.952,123.544 878.144,124.024 C878.4,124.728 878.512,125.256 878.48,125.608 L878.528,126.088 C878.56,126.472 878.576,126.904 878.576,127.384 C878.512,128.088 878.4,128.808 878.24,129.544 C878.048,130.504 877.76,131.48 877.376,132.472 L875.36,139.336 L868.592,119.176 L869.216,119.176 L869.216,119.176 C869.664,119.144 870.064,119.112 870.416,119.08 L870.704,119.08 C870.928,119.016 871.104,118.92 871.232,118.792 C871.392,118.6 871.44,118.328 871.376,117.976 L871.328,117.832 C871.232,117.736 871.088,117.656 870.896,117.592 C870.704,117.528 870.416,117.528 870.032,117.592 L867.632,117.688 C865.584,117.752 863.504,117.72 861.392,117.592 L860.96,117.544 C860.64,117.544 860.384,117.576 860.192,117.64 C859.936,117.768 859.824,117.992 859.856,118.312 L859.856,118.456 C859.888,118.584 859.976,118.704 860.12,118.816 C860.264,118.928 860.528,119.016 860.912,119.08 C861.328,119.176 861.888,119.208 862.592,119.176 L865.424,127.24 L861.344,139.576 Z M875.408,144.328 L881.456,126.568 C881.936,125.448 882.256,124.232 882.416,122.92 C882.544,122.024 882.576,121.112 882.512,120.184 L882.416,119.08 C883.216,120.616 883.808,122.2 884.192,123.832 C884.512,125.24 884.672,126.664 884.672,128.104 C884.672,129.256 884.576,130.408 884.384,131.56 C884.224,132.392 884.032,133.16 883.808,133.864 L883.52,134.728 C882.912,136.264 882.128,137.704 881.168,139.048 C880.368,140.136 879.472,141.128 878.48,142.024 C877.776,142.696 877.056,143.272 876.32,143.752 L875.408,144.328 Z M857.84,144.952 L857.168,144.616 C856.624,144.328 856.064,143.992 855.488,143.608 C854.688,143.032 853.936,142.392 853.232,141.688 C852.304,140.792 851.472,139.816 850.736,138.76 C849.872,137.512 849.136,136.168 848.528,134.728 C848.4,134.312 848.272,133.912 848.144,133.528 C847.856,132.504 847.664,131.432 847.568,130.312 C847.376,128.776 847.36,127.256 847.52,125.752 C847.744,123.864 848.208,122.072 848.912,120.376 L857.84,144.952 Z M865.04,146.872 C863.536,146.776 862.112,146.504 860.768,146.056 L866.336,129.688 L872.144,145.768 L871.184,146.104 C870.384,146.36 869.536,146.552 868.64,146.68 C867.424,146.872 866.224,146.936 865.04,146.872 Z" id="client-8"></path>
                </g>
            </g>
        </g>
    </g>
</svg>