<?xml version="1.0" encoding="UTF-8"?>
<svg width="36px" height="37px" viewBox="0 0 36 37" version="1.1" xmlns="http://www.w3.org/2000/svg" xmlns:xlink="http://www.w3.org/1999/xlink">
    <!-- Generator: Sketch 61.2 (89653) - https://sketch.com -->
    <title>client-4</title>
    <desc>Created with Sketch.</desc>
    <g id="Personal-1-mixed" stroke="none" stroke-width="1" fill="none" fill-rule="evenodd" opacity="0.300000012">
        <g transform="translate(-1257.000000, -4938.000000)" fill="#282642" fill-rule="nonzero" id="clients">
            <g transform="translate(350.000000, 4446.000000)">
                <g id="Group-5" transform="translate(59.000000, 487.000000)">
                    <path d="M859.88,19.404 L859.88,13.752 L862.58,5.796 L860.204,5.796 L858.8,11.232 L858.656,11.232 L857.144,5.796 L854.804,5.796 L857.576,14.004 L857.576,19.404 L859.88,19.404 Z M865.676,19.656 C866.612,19.656 867.356,19.416 867.908,18.936 C868.436,18.408 868.7,17.736 868.7,16.92 L868.7,11.736 C868.7,10.968 868.424,10.338 867.872,9.846 C867.32,9.354 866.612,9.108 865.748,9.108 C864.884,9.108 864.152,9.336 863.552,9.792 C863,10.272 862.724,10.896 862.724,11.664 L862.724,16.884 C862.724,17.724 863,18.396 863.552,18.9 C864.104,19.404 864.812,19.656 865.676,19.656 Z M871.76,19.548 C872.168,19.548 872.57,19.44 872.966,19.224 C873.362,19.008 873.752,18.696 874.136,18.288 L874.136,19.404 L876.188,19.404 L876.188,9.36 L874.136,9.36 L874.136,16.992 C873.968,17.184 873.764,17.358 873.524,17.514 C873.284,17.67 873.086,17.748 872.93,17.748 C872.774,17.748 872.648,17.688 872.552,17.568 C872.456,17.448 872.408,17.28 872.408,17.064 L872.408,9.36 L870.356,9.36 L870.356,17.748 C870.356,18.372 870.47,18.828 870.698,19.116 C870.926,19.404 871.28,19.548 871.76,19.548 Z M865.658,17.928 C865.406,17.928 865.208,17.85 865.064,17.694 C864.92,17.538 864.848,17.328 864.848,17.064 L864.848,11.592 C864.848,11.376 864.932,11.196 865.1,11.052 C865.268,10.908 865.478,10.836 865.73,10.836 C865.982,10.836 866.192,10.914 866.36,11.07 C866.528,11.226 866.612,11.4 866.612,11.592 L866.612,17.064 C866.612,17.304 866.516,17.508 866.324,17.676 C866.132,17.844 865.91,17.928 865.658,17.928 Z M877.412,41.004 C878.612,41.004 879.716,40.71 880.724,40.122 C881.732,39.534 882.53,38.736 883.118,37.728 C883.706,36.72 884,35.616 884,34.416 L884,29.16 C884,27.96 883.706,26.856 883.118,25.848 C882.53,24.84 881.732,24.042 880.724,23.454 C879.716,22.866 878.612,22.572 877.412,22.572 L854.588,22.572 C853.388,22.572 852.284,22.866 851.276,23.454 C850.268,24.042 849.47,24.84 848.882,25.848 C848.294,26.856 848,27.96 848,29.16 L848,34.416 C848,35.616 848.294,36.72 848.882,37.728 C849.47,38.736 850.268,39.534 851.276,40.122 C852.284,40.71 853.388,41.004 854.588,41.004 L877.412,41.004 Z M857.252,37.224 L855.2,37.224 L855.2,26.676 L853.076,26.676 L853.076,24.876 L859.376,24.876 L859.376,26.676 L857.252,26.676 L857.252,37.224 Z M870.32,37.368 C869.96,37.368 869.648,37.296 869.384,37.152 C869.024,36.984 868.76,36.78 868.592,36.54 L868.592,37.224 L866.756,37.224 L866.756,24.876 L868.592,24.876 L868.592,28.872 C868.856,28.584 869.12,28.368 869.384,28.224 C869.648,28.08 869.924,28.008 870.212,28.008 C870.788,28.008 871.226,28.2 871.526,28.584 C871.826,28.968 871.976,29.544 871.976,30.312 L871.976,35.352 C871.976,36 871.832,36.498 871.544,36.846 C871.256,37.194 870.848,37.368 870.32,37.368 Z M875.576,37.476 C874.76,37.476 874.118,37.236 873.65,36.756 C873.182,36.276 872.948,35.58 872.948,34.668 L872.948,30.564 C872.948,29.796 873.2,29.16 873.704,28.656 C874.208,28.152 874.88,27.9 875.72,27.9 C876.56,27.9 877.202,28.128 877.646,28.584 C878.09,29.04 878.312,29.7 878.312,30.564 L878.312,32.904 L874.82,32.904 L874.82,34.632 C874.82,35.088 874.88,35.412 875,35.604 C875.12,35.796 875.324,35.892 875.612,35.892 C875.9,35.892 876.11,35.808 876.242,35.64 C876.374,35.472 876.44,35.136 876.44,34.632 L876.44,34.2 L878.312,34.2 L878.312,34.668 C878.312,35.58 878.084,36.276 877.628,36.756 C877.172,37.236 876.488,37.476 875.576,37.476 Z M861.428,37.368 C861.02,37.368 860.708,37.23 860.492,36.954 C860.276,36.678 860.168,36.276 860.168,35.748 L860.168,28.116 L862.004,28.116 L862.004,35.1 C862.004,35.34 862.04,35.502 862.112,35.586 C862.184,35.67 862.31,35.712 862.49,35.712 C862.67,35.712 862.832,35.652 862.976,35.532 C863.216,35.364 863.408,35.196 863.552,35.028 L863.552,28.116 L865.388,28.116 L865.388,37.224 L863.552,37.224 L863.552,36.252 C863.216,36.612 862.88,36.888 862.544,37.08 C862.208,37.272 861.836,37.368 861.428,37.368 Z M869.456,35.928 C869.672,35.928 869.834,35.868 869.942,35.748 C870.05,35.628 870.104,35.412 870.104,35.1 L870.104,30.384 C870.104,30.096 870.032,29.868 869.888,29.7 C869.744,29.532 869.564,29.448 869.348,29.448 C869.228,29.448 869.096,29.484 868.952,29.556 L868.88,29.592 C868.736,29.688 868.64,29.772 868.592,29.844 L868.592,35.496 C868.784,35.688 868.928,35.796 869.024,35.82 L869.168,35.856 C869.288,35.904 869.384,35.928 869.456,35.928 Z M876.44,31.5 L876.44,30.564 C876.44,30.18 876.374,29.904 876.242,29.736 C876.11,29.568 875.912,29.484 875.648,29.484 C875.384,29.484 875.168,29.568 875,29.736 C874.88,29.928 874.82,30.204 874.82,30.564 L874.82,31.5 L876.44,31.5 Z" id="client-4"></path>
                </g>
            </g>
        </g>
    </g>
</svg>